<?xml version="1.0" standalone="no"?><!DOCTYPE svg PUBLIC "-//W3C//DTD SVG 1.1//EN" "http://www.w3.org/Graphics/SVG/1.1/DTD/svg11.dtd"><svg t="1609923643316" class="icon" viewBox="0 0 1024 1024" version="1.1" xmlns="http://www.w3.org/2000/svg" p-id="2967" xmlns:xlink="http://www.w3.org/1999/xlink" width="200" height="200"><defs><style type="text/css"></style></defs><path d="M507.444 532.505A224.318 224.318 0 0 0 628.613 331.8 220.59 220.59 0 0 0 411.13 108.104 220.59 220.59 0 0 0 194.27 331.8a224.318 224.318 0 0 0 124.275 201.327A276.513 276.513 0 0 0 69.994 810.883v15.534c0 41.011 27.34 67.11 83.264 78.916a1010.361 1010.361 0 0 0 186.414 9.942h154.102c145.402 0 270.92 0 270.92-88.858v-15.534a275.892 275.892 0 0 0-257.25-278.378z m212.511 7.457a198.22 198.22 0 0 0 100.042-173.986 195.734 195.734 0 0 0-192.627-198.22h-28.583v3.107a254.144 254.144 0 0 1 27.34 43.497A148.51 148.51 0 0 1 627.37 512h-6.214l81.4 74.565A195.113 195.113 0 0 1 888.97 783.542v13.67a9.942 9.942 0 0 1-4.35 9.321 83.886 83.886 0 0 1-34.175 13.05 395.197 395.197 0 0 1-58.41 6.213 101.906 101.906 0 0 1-10.563 44.74v3.728h3.728c80.78 0 155.345-14.292 155.345-79.537v-9.32a242.959 242.959 0 0 0-220.59-245.445z" p-id="2968" fill="#707070"></path></svg>