<?xml version="1.0" standalone="no"?><!DOCTYPE svg PUBLIC "-//W3C//DTD SVG 1.1//EN" "http://www.w3.org/Graphics/SVG/1.1/DTD/svg11.dtd"><svg t="1609988611321" class="icon" viewBox="0 0 1024 1024" version="1.1" xmlns="http://www.w3.org/2000/svg" p-id="3284" xmlns:xlink="http://www.w3.org/1999/xlink" width="200" height="200"><defs><style type="text/css"></style></defs><path d="M929.536 950.208l-278.784-282.752 21.888-21.952c117.952-118.144 117.952-310.272 0-428.288C615.36 160 539.328 128.448 458.432 128.448c-80.896 0-156.928 31.552-214.144 88.768-117.952 118.016-117.952 310.144 0 428.288 96.768 96.832 247.04 116.608 365.376 48.32l32 55.36c-143.424 82.88-325.44 58.816-442.688-58.432-142.912-143.104-142.912-375.872 0-518.784 69.312-69.312 161.344-107.52 259.392-107.52s190.144 38.208 259.456 107.52c135.488 135.552 142.528 351.872 20.992 495.936l15.616 16.704 220.288 220.352L929.536 950.208z" p-id="3285" fill="#515151"></path></svg>