<?xml version="1.0" standalone="no"?><!DOCTYPE svg PUBLIC "-//W3C//DTD SVG 1.1//EN" "http://www.w3.org/Graphics/SVG/1.1/DTD/svg11.dtd"><svg t="1609400123586" class="icon" viewBox="0 0 1024 1024" version="1.1" xmlns="http://www.w3.org/2000/svg" p-id="695" xmlns:xlink="http://www.w3.org/1999/xlink" width="200" height="200"><defs><style type="text/css"></style></defs><path d="M897.58 1024H139.062c-62.578 0-113.778-51.2-113.778-113.778v-189.63c0-20.859 17.067-37.925 37.926-37.925s37.926 17.066 37.926 37.926v189.63c0 20.858 17.066 37.925 37.926 37.925H897.58c20.86 0 37.926-17.067 37.926-37.926v-189.63c0-20.859 17.067-37.925 37.926-37.925s37.926 17.066 37.926 37.926v189.63c0 62.577-51.2 113.777-113.778 113.777z" p-id="696" fill="#8a8a8a"></path><path d="M214.914 872.296c-20.86 0-37.926-17.066-37.926-37.926V37.926C176.988 17.066 194.054 0 214.914 0s37.926 17.067 37.926 37.926V834.37c0 20.86-17.067 37.926-37.926 37.926z m189.63 0c-20.86 0-37.927-17.066-37.927-37.926V189.63c0-20.86 17.067-37.926 37.926-37.926s37.926 17.066 37.926 37.926v644.74c0 20.86-17.067 37.926-37.926 37.926z m436.147 0c-18.963 0-34.133-13.274-37.926-32.237L690.884 204.8c-3.793-20.86 9.481-39.822 30.34-43.615 20.86-3.792 39.823 9.482 43.616 30.34l111.881 635.26c3.793 20.86-9.481 39.822-30.34 43.615-1.897 1.896-3.793 1.896-5.69 1.896z m-246.518 0c-20.86 0-37.926-17.066-37.926-37.926V341.333c0-20.859 17.067-37.926 37.926-37.926s37.926 17.067 37.926 37.926V834.37c0 20.86-17.067 37.926-37.926 37.926z" p-id="697" fill="#8a8a8a"></path></svg>