<?xml version="1.0" standalone="no"?><!DOCTYPE svg PUBLIC "-//W3C//DTD SVG 1.1//EN" "http://www.w3.org/Graphics/SVG/1.1/DTD/svg11.dtd"><svg t="1609401180895" class="icon" viewBox="0 0 1024 1024" version="1.1" xmlns="http://www.w3.org/2000/svg" p-id="920" xmlns:xlink="http://www.w3.org/1999/xlink" width="200" height="200"><defs><style type="text/css"></style></defs><path d="M511.837091 91.438545c52.922182 0 96.628364 39.610182 99.234909 90.065455l0.116364 4.747636V384h236.055272a93.090909 93.090909 0 0 1 92.974546 88.436364l0.116363 4.654545v390.656a93.090909 93.090909 0 0 1-88.436363 92.974546l-4.654546 0.116363H188.555636c-52.898909 0-96.628364-39.610182-99.211636-90.065454l-0.139636-4.770909V186.251636c0-51.106909 42.123636-92.253091 94.417454-94.72l4.933818-0.093091h323.281455zM847.243636 430.545455H611.141818v483.723636h236.078546a46.545455 46.545455 0 0 0 46.405818-43.054546l0.139636-3.490909V477.090909a46.545455 46.545455 0 0 0-46.545454-46.545454zM511.837091 137.984H188.555636c-28.183273 0-50.757818 20.061091-52.666181 44.869818l-0.139637 3.397818v679.749819c0 25.204364 21.364364 46.359273 48.989091 48.174545l3.816727 0.116364 376.064-0.023273V186.251636c0-24.040727-19.432727-44.427636-45.242181-47.802181l-3.723637-0.349091-3.816727-0.116364z m-88.692364 580.352a18.292364 18.292364 0 0 1 0.395637 36.561455l-164.561455 1.861818a18.292364 18.292364 0 0 1-0.418909-36.584728z m402.269091-7.354182a18.292364 18.292364 0 0 1 0.418909 36.584727l-164.561454 1.838546a18.292364 18.292364 0 0 1-0.418909-36.561455z m-402.269091-123.578182a18.292364 18.292364 0 0 1 0.395637 36.584728l-164.561455 1.838545a18.292364 18.292364 0 0 1-0.418909-36.561454z m402.269091-7.330909a18.292364 18.292364 0 0 1 0.418909 36.561455l-164.561454 1.861818a18.292364 18.292364 0 0 1-0.418909-36.584727z m-420.352-319.069091c20.200727 0 36.561455 16.360727 36.561455 36.538182V407.272727c0 20.200727-16.360727 36.561455-36.561455 36.561455h-128a36.561455 36.561455 0 0 1-36.584727-36.561455v-109.707636c0-20.200727 16.384-36.584727 36.584727-36.584727h128z m0 36.538182h-128V407.272727h128v-109.707636z" fill="#8a8a8a" p-id="921"></path></svg>