<?xml version="1.0" standalone="no"?><!DOCTYPE svg PUBLIC "-//W3C//DTD SVG 1.1//EN" "http://www.w3.org/Graphics/SVG/1.1/DTD/svg11.dtd"><svg t="1609761175001" class="icon" viewBox="0 0 1428 1024" version="1.1" xmlns="http://www.w3.org/2000/svg" p-id="2841" xmlns:xlink="http://www.w3.org/1999/xlink" width="278.90625" height="200"><defs><style type="text/css"></style></defs><path d="M1214.383158 1008.909474c-2.155789 4.985263-0.134737 3.637895-0.269474 4.581052 3.233684-8.623158-0.134737-4.446316 0.269474-4.581052zM1245.911579 925.237895l-0.134737 1.616842 3.772632-12.665263zM1278.113684 848.303158c-5.254737 6.332632-11.317895 28.025263-17.92 41.498947l-1.482105 2.021053-0.808421 7.006316c6.871579-16.842105 14.686316-39.073684 20.210526-50.526316zM1300.210526 809.229474c-1.886316 2.155789 2.964211-9.162105-4.311579 9.431579 0.538947-0.808421 0.673684-1.077895 0.943158-1.616842 0.673684-1.751579 1.616842-3.907368 3.368421-7.814737z" p-id="2842" fill="#d81e06"></path><path d="M1296.842105 817.044211c-3.368421 8.084211 2.964211-5.12 0 0zM1312.067368 779.183158l-3.637894 11.048421c1.482105-2.021053 5.524211-11.452632 4.446315-7.814737 4.042105-11.183158 2.56-9.027368-0.808421-3.233684zM1314.627368 768.404211l-2.021052 5.658947c0.673684-0.808421 1.347368-2.290526 2.021052-5.658947zM1308.429474 786.189474l4.176842-11.991579c-0.943158 1.347368-1.751579 1.212632-2.021053 5.52421-0.134737-1.212632-0.538947 1.212632-2.155789 6.467369zM1305.330526 792.656842c-2.964211 5.793684-6.602105 13.473684-2.829473 2.425263-8.218947 20.48-5.389474 18.054737 2.829473-2.425263zM1277.574737 843.183158l-4.042105 7.68-2.15579 7.275789c1.077895-3.503158 7.006316-15.090526 6.197895-14.955789zM1341.035789 713.162105c-0.134737-0.808421-2.829474 3.098947-3.637894 3.637895l-2.829474 8.084211c2.021053-3.907368 5.524211-11.452632 6.467368-11.722106zM1337.397895 716.8l4.176842-12.126316c-4.581053 10.374737-4.985263 12.665263-4.176842 12.126316zM1313.010526 765.574737l-6.467368 20.210526 7.949474-24.117895zM1360.033684 668.025263l-1.751579 7.141053 3.368421-12.530527zM1372.294737 637.978947c-1.212632 5.389474 4.311579-6.197895 2.694737-0.673684 3.233684-8.218947 5.389474-15.494737 7.275789-21.962105-2.290526 6.871579-5.389474 13.877895-9.970526 22.635789zM1385.768421 604.429474c-1.212632 3.368421-2.155789 7.006316-3.368421 10.913684 1.212632-3.637895 2.425263-7.006316 3.368421-10.913684zM1350.197895 684.597895c0.673684-0.808421 2.155789-2.290526 5.254737-8.757895l-3.233685 4.042105c-0.673684 1.482105-1.347368 3.098947-2.021052 4.71579zM1351.949474 680.016842l0.134737-0.134737c2.155789-4.985263 3.637895-8.488421 4.311578-9.970526-0.538947 1.347368-1.886316 4.311579-4.446315 10.105263zM1349.658947 685.810526c0.134737-0.404211 0.269474-0.808421 0.538948-1.212631-0.404211 0.404211-0.538947 0.673684-0.538948 1.212631zM1327.157895 735.124211c2.155789-7.275789 7.410526-22.096842 0.40421-8.488422-1.212632 5.254737 2.829474-2.56-0.40421 8.488422zM1345.616842 690.795789l-5.52421 12.39579c0.404211-0.134737 1.886316-2.155789 0.808421 1.482105l4.715789-13.877895zM1347.772632 684.597895l-2.15579 6.197894 2.021053-4.581052zM1375.528421 625.448421c1.751579-5.658947 4.176842-11.587368 6.871579-18.32421-3.233684 7.006316-6.467368 14.416842-9.431579 21.423157-0.134737 1.212632-0.673684 4.581053 2.56-3.098947zM1363.941053 651.856842l0.40421-1.212631c-0.404211 0.673684-0.673684 1.482105-0.40421 1.212631zM1409.886316 541.103158l-0.673684 1.077895 0.134736 0.269473zM1372.16 629.76c-2.56 5.254737-3.503158 8.623158-4.446316 11.856842 1.616842-4.042105 3.368421-8.353684 5.12-12.934737 0-0.673684 0-0.808421-0.673684 1.077895zM1392.774737 585.970526c-1.482105 2.829474-2.964211 5.793684-4.581053 9.027369 1.482105-2.56 4.581053-8.084211 4.581053-9.027369zM1365.557895 649.027368l-0.269474 0.808421c0.943158-1.616842 0.808421-1.347368 0.269474-0.808421zM1365.557895 649.027368c0.943158-2.829474 1.616842-5.12 2.155789-7.545263-1.212632 3.368421-2.290526 6.332632-3.368421 9.162106 0.404211-0.538947 0.808421-1.212632 1.212632-1.616843z" p-id="2843" fill="#d81e06"></path><path d="M1409.482105 518.332632c1.212632 0.404211-3.772632 15.629474-10.105263 27.216842-4.176842 12.395789 3.233684 6.197895 9.83579-3.368421-0.404211-0.538947-0.943158-0.808421 3.637894-13.473685-2.425263 4.042105-13.069474 26.812632-9.835789 15.898948 3.098947-8.353684 4.581053-11.722105 5.928421-13.877895 0.673684-0.943158 1.212632-1.886316 1.751579-2.96421 0.538947-0.943158 1.347368-2.290526 2.694737-4.985264-2.964211 4.715789 0.269474-4.715789 2.021052-11.183158-6.467368-2.021053-11.452632-3.233684-10.64421-1.751578l7.949473 2.829473-2.290526 6.467369c-0.269474 0 1.077895-4.715789-0.943158-0.808421zM1399.242105 565.76l-2.021052 5.12c2.694737-5.658947 4.850526-9.701053 9.027368-16.976842 2.964211-8.757895 3.233684-10.644211 3.098947-11.452632l-10.64421 25.061053 0.538947-1.751579zM1387.654737 593.785263c0.269474-4.581053 4.850526-16.976842 0.269474-10.105263-6.197895 14.955789-3.233684 10.913684-6.467369 20.210526 9.835789-24.252632-2.155789 7.275789 5.928421-9.835789-1.886316 4.850526-3.503158 9.162105-5.12 13.20421 2.021053-4.176842 4.042105-8.353684 5.793684-12.261052-0.134737 0.269474-0.269474 0.404211-0.269473 0.538947v0.134737c-0.538947 0.943158-0.808421 1.212632-0.269474 0.134737 0-0.134737 0.134737-0.404211 0.134737-0.538948v-1.482105c3.233684-6.871579 0.808421-0.943158 0 1.347369 0 0.134737 0 0.269474 0.134737 0.40421v-0.134737l9.431579-24.522105c-2.290526 4.985263-4.985263 11.452632-9.566316 22.905263zM1330.122105 712.488421c0.404211-0.673684 0.538947-0.673684 0.673684-0.673684 0.404211-1.751579 0.538947-2.425263-0.673684 0.673684z" p-id="2844" fill="#d81e06"></path><path d="M1335.107368 702.787368c-0.538947 1.886316-0.673684 3.503158-3.098947 9.162106-2.425263 4.850526-0.673684-0.269474-1.212632-0.269474-1.077895 3.637895-4.042105 12.530526 1.077895 1.886316l0.538948-1.751579c4.581053-9.566316 11.452632-21.423158 10.913684-19.536842-2.425263 2.425263-4.311579 4.581053-8.218948 10.509473zM1361.381053 647.545263l7.814736-20.48-5.389473 9.83579 0.943158-0.269474c-5.254737 11.183158-3.368421 9.162105-3.368421 10.913684zM1411.637895 539.082105l0.269473 3.233684 2.829474-12.395789zM1419.587368 505.802105h3.233685l-12.665264-4.311579zM107.115789 303.562105l-2.155789 6.063158c1.077895-2.829474 1.616842-4.446316 2.155789-6.063158zM125.170526 260.715789l-0.134737-1.347368c-0.538947 2.290526-0.673684 3.233684 0.134737 1.347368zM770.425263 234.172632c-8.084211-4.715789-16.976842-10.509474-16.572631-8.757895l2.021052 2.425263c6.197895 2.290526 10.778947 4.446316 14.551579 6.332632zM326.602105 57.936842c0.808421 0.538947 1.616842 0.943158 2.290527 1.482105 2.290526 0.404211 4.446316 0.808421 6.332631 1.212632-2.56-0.943158-5.524211-1.886316-8.623158-2.694737zM318.113684 60.766316l-11.048421-5.658948c2.56 1.482105 6.063158 3.368421 11.048421 5.658948zM40.286316 511.595789l7.545263 1.482106c-10.778947-4.581053-6.332632-1.886316-7.545263-1.482106zM1145.263158 391.545263a455.410526 455.410526 0 0 0-18.189474-8.623158c8.623158 4.581053 15.36 8.757895 18.189474 8.623158zM99.84 280.926316c-1.212632 3.772632-1.616842 5.389474-1.347368 5.389473 1.347368-4.042105 2.021053-6.197895 1.347368-5.389473zM1105.515789 374.029474c1.347368 0.673684 2.56 1.347368 3.772632 2.021052 5.524211 2.021053 11.048421 4.176842 17.650526 7.006316-6.332632-3.503158-13.743158-7.006316-21.423158-9.027368zM888.993684 868.244211c0.673684 0.269474 1.212632 0.673684 1.886316 0.943157 0.269474-0.134737-0.538947-0.538947-1.886316-0.943157zM1130.711579 985.465263c-2.425263-0.943158-6.467368-2.56-10.24-4.176842 1.886316 0.808421 4.850526 2.155789 10.24 4.176842zM1308.564211 458.644211c5.524211 2.425263 0.943158 0.269474 0 0zM1333.355789 475.351579c-1.212632-0.404211-2.155789-0.538947-2.56-0.269474 0.673684-0.134737 1.482105-0.134737 2.56 0.269474zM1046.635789 359.208421c-0.134737-0.134737-0.269474-0.134737-0.538947-0.269474 1.616842 1.077895 1.347368 0.808421 0.538947 0.269474zM1316.648421 462.821053c-2.021053-1.077895-4.446316-2.155789-6.871579-3.368421 1.077895 0.673684 3.233684 1.616842 6.871579 3.368421zM1315.84 461.608421c1.886316 0.808421 3.368421 1.482105 4.850526 2.15579 0.673684 0.134737 0.134737-0.269474-4.850526-2.15579zM1300.749474 455.545263c3.098947 1.347368 6.063158 2.694737 8.892631 3.907369-1.077895-0.538947-1.482105-0.808421-1.212631-0.673685-1.482105-0.808421-3.772632-1.751579-7.68-3.233684zM432.505263 681.229474c0.404211 0.134737 0.673684 0.404211 1.077895 0.673684 5.928421 1.751579 3.503158 0.808421-1.077895-0.673684zM620.058947 187.823158c0.269474 0.134737 0.404211 0.134737 0.673685 0.134737l-0.808421-0.404211 0.134736 0.269474zM599.578947 180.277895c9.162105 1.886316 13.877895 4.042105 20.210527 7.141052l-4.985263-6.602105-15.225264-0.538947z" p-id="2845" fill="#d81e06"></path><path d="M64.538947 406.366316l7.141053-13.473684c-5.12 17.785263-10.913684 29.642105-3.637895 17.246315-3.368421-3.772632 22.366316-54.703158 18.997895-58.341052l4.715789-8.892632c-1.077895 2.694737-1.212632 3.098947-2.155789 5.793684 9.566316-17.111579 2.56-14.686316 12.8-37.456842 3.637895-7.949474 6.736842-13.338947 4.850526-7.545263l6.467369-18.458947c2.290526-5.254737 2.425263-3.637895 0.269473 1.616842l11.183158-27.486316v0.269474c0.943158-4.176842 3.637895-13.473684 4.985263-17.92 3.503158-6.736842-1.077895 3.637895 0.269474 2.155789l5.389474-15.629473c3.637895-5.658947-0.538947 7.275789-5.12 17.650526 10.105263-12.395789 4.176842-13.069474 19.536842-42.576842l-5.524211 14.551579c6.197895-8.218947 10.105263-19.806316 18.324211-35.301053-2.425263 3.503158-17.381053 30.854737-11.452632 14.012632 2.290526-4.446316 4.985263-10.509474 7.814737-19.806316 1.482105 0.538947 4.850526-8.218947 9.296842-19.132632l1.616842 1.616842c4.311579-11.991579 2.964211-11.452632 4.985264-18.728421 5.658947-12.934737 8.353684-15.090526 10.913684-17.650526 9.027368-20.884211-8.488421 13.473684 1.482105-11.587368 8.084211-17.111579 12.395789-29.642105 19.941053-51.065264 5.793684-11.856842 0.269474 2.694737 2.694737-1.482105l2.96421-11.452631c1.212632-2.694737 1.212632-1.616842 1.347368-1.077895 3.233684-9.431579-1.616842-1.616842 3.772632-16.168421 0-2.694737 2.290526-6.736842 4.581053-10.374737 1.482105 0.808421 3.098947 1.751579 4.715789 2.694737l2.15579 1.212631 3.907368 1.886316c5.524211 2.56 11.048421 4.850526 16.303158 6.197895 4.176842 2.425263-2.56 0.269474-1.616842 1.616842 25.061053 8.488421 21.288421 7.545263 42.172631 13.743158l16.437895 8.488421c-11.856842-6.736842 4.850526-1.751579 19.402105 2.56-4.176842-2.56-7.814737-4.850526-10.105263-6.197895l22.770527 8.218948c2.56 1.482105 0 1.212632-4.042106 0.538947 1.616842 0.404211 3.098947 0.943158 4.311579 1.212632 7.68 4.042105 3.098947 3.503158-3.098947 2.155789-2.56-1.482105-4.985263-3.098947-7.545263-4.581053-6.063158-1.077895-11.722105-1.886316-11.048421-0.269473 1.482105 0.404211 4.446316 1.347368 7.545263 2.56-1.616842-0.269474-2.56-0.404211-2.021053 0.134737 0.673684 0.538947 3.233684 1.077895 7.006316 2.021052l4.176842 4.311579 1.616842-0.40421 28.564211 13.608421c21.827368 6.467368 41.364211 10.778947 74.913684 23.848421-8.892632-1.886316-2.829474 1.886316-4.176842 3.637894-8.218947-5.793684-26.004211-9.835789-43.11579-17.515789 8.892632 3.907368 6.467368 4.042105 4.042106 3.368421l31.393684 10.913684c-1.347368 1.347368 6.063158 3.907368 13.743158 7.949474-4.715789-5.658947 23.713684 7.545263 36.648421 11.722105 0.269474 1.347368-3.098947 1.212632-18.189474-5.389474 15.764211 9.431579 23.174737 5.389474 38.804211 14.282106-3.772632-1.482105-5.658947-2.56-7.410527-2.56 9.027368 2.694737 29.911579 12.261053 24.656842 11.183158l-3.772631-1.482106c24.522105 10.644211 75.048421 31.528421 79.898947 30.31579 0.134737 0.404211-4.581053 1.886316-6.332631 1.751579l47.696842 9.566316c-4.850526 0.673684 7.814737 12.261053-13.204211 4.985263 5.793684 2.829474 12.8 6.197895 25.6 10.64421-3.907368-2.021053-8.623158-7.410526-3.098947-5.389473 14.012632 8.757895 9.835789 5.658947 27.486316 15.629473-5.793684-2.964211 2.425263-3.772632 11.856842 0.269474-1.751579-0.134737-0.673684 3.907368-4.311579 2.694737l25.061052 6.332631c-6.197895-1.886316-2.290526 2.56 2.56 5.658948-2.155789-1.751579 20.345263 8.623158 26.812632 10.913684l-9.701053-4.985263c26.408421 11.722105 28.429474 6.063158 54.837895 17.381052-3.503158-0.673684-9.835789 1.077895 3.503158 7.141053 6.871579 0.808421 30.854737 2.829474 54.837895 11.183158l4.042105 2.96421 18.997895 6.467369c-12.261053-2.021053-46.08-9.431579-64.134737-14.416842 9.701053 4.985263 2.290526 2.425263 17.246316 8.488421 4.850526 3.233684-8.757895-2.021053-13.204211-3.772632l34.492632 15.225263c-0.673684-2.694737 27.486316 9.027368 26.947368 6.736843l-38.669474-13.608422c-0.673684-2.694737 24.387368 3.233684 48.774737 13.877895 5.928421 3.503158-6.197895 1.751579-6.063158 2.694737 3.503158 0.673684 23.983158 8.488421 26.004211 9.83579l-10.913684-3.233685c13.338947 6.467368 23.578947 6.602105 39.208421 15.494737 5.658947 2.56 15.898947 9.835789 17.381052 9.027369-8.353684-6.332632-7.006316-14.416842-0.134736-13.608421 1.886316 0.943158 28.968421 14.821053 34.896842 18.728421 8.623158 5.793684-15.898947-1.482105-8.623158 3.503157 0.538947-0.404211 6.063158 1.077895 8.353684 1.751579 5.793684 2.964211-3.233684 0.673684 9.835789 5.928421 3.098947-1.212632 26.408421 11.183158 6.871579 0.808422 12.934737 4.715789 13.338947 6.063158 28.294737 12.261052-4.176842-3.368421 15.36 0.943158 28.294737 5.658948-0.943158 0.269474 1.616842 2.155789 2.829474 2.96421 26.004211 11.048421 39.612632 17.92 63.865263 28.16 2.021053 1.482105 13.473684 7.006316 8.08421 5.793684 3.637895 1.077895 7.141053 1.751579 14.686316 4.850527 13.743158 7.949474-16.842105-6.736842-6.736842 0.134736 1.482105-0.808421 20.075789 6.467368 31.124211 10.105264-2.425263-3.233684-24.522105-10.644211-35.570527-14.416843 1.077895-2.694737 20.749474 2.425263 46.753685 11.856843 20.48 7.814737 8.084211 5.389474 11.722105 6.467368 37.726316 16.303158 34.223158 8.892632 64.943158 23.983158 11.722105 6.871579-0.808421 3.503158 1.482105 5.928421-16.707368-6.197895-24.791579-11.587368-35.974737-16.168421l13.338948 6.467368c-5.524211-1.616842-16.572632-5.793684-22.366316-8.757894 9.835789 5.928421 63.865263 27.082105 92.56421 40.690526 5.389474 1.616842 14.686316 4.850526 10.644211 2.290526l-9.296842-3.637895c-7.949474-4.850526 18.189474 5.389474 6.736842-0.134736 12.8 4.311579 27.351579 8.623158 44.463158 16.707368l2.425263 3.233684c-0.134737-0.673684-10.913684-5.928421-16.033684-7.410526 7.68 2.155789 25.734737 13.743158 34.762105 14.686316l-11.722105-6.467369c12.8 4.311579 29.103158 8.623158 44.328421 15.764211-6.197895-4.850526-3.637895-1.212632-13.743158-8.084211 8.353684 6.736842-39.612632-16.707368-25.465263-7.410526-10.24-7.275789-19.132632-9.296842-32.87579-17.650526 0.134737 0.808421 4.715789 3.368421-8.08421-2.425263-0.673684 0-2.155789-0.404211-3.098948-0.673685-0.404211-0.134737-0.538947-0.269474-0.808421-0.40421l0.673684 0.40421c-0.538947-0.134737-0.673684-0.134737 0.269474 0.134737 2.964211 1.616842 5.389474 2.964211 6.197895 3.772632-7.006316-1.212632-27.755789-9.970526-35.031579-12.126316-7.545263-3.503158 3.503158 0.673684-0.404211-1.751579l-10.913684-3.233684c-0.404211-1.886316-19.536842-10.913684-0.943158-4.042105l-16.303158-6.871579c-9.296842-4.850526-22.366316-10.644211-30.854736-13.473685-7.545263-3.503158-20.075789-6.602105-12.934737-4.850526l-26.004211-9.835789-0.134737-0.404211c-25.195789-10.778947-53.086316-19.536842-80.976842-34.088421-8.623158-3.233684-17.650526-6.467368-31.797895-12.8l-2.290526-2.425263c-11.048421-4.176842-32.336842-14.955789-37.591579-15.629474-10.374737-8.218947-52.816842-22.905263-71.814737-31.528421l-1.347368 1.212632c-13.204211-5.658947-26.138947-10.509474-42.846316-16.707369l0.404211 1.751579c-14.686316-4.850526-35.974737-16.303158-58.47579-25.465263 1.751579 0.134737 7.410526 2.56 11.317895 4.581053-25.465263-14.416842-57.397895-21.423158-80.842105-33.818948-6.197895-2.021053-10.509474-4.042105-14.686316-6.197894 0.538947 0.269474 1.077895 0.404211 1.482105 0.538947-0.673684-0.269474-1.482105-0.673684-2.425263-1.077895-2.56-1.347368-5.254737-2.829474-8.084211-4.311579 2.425263 1.347368 4.715789 2.694737 6.736843 3.772632-4.715789-1.886316-11.856842-4.715789-18.863158-7.27579l-2.290527-2.694736c-0.538947-0.269474-1.077895-0.404211-1.616842-0.673685-6.602105-3.368421-5.793684-1.616842-2.56 1.077895-3.637895-1.212632-6.871579-2.290526-9.566316-2.96421-4.581053-4.715789-18.593684-6.871579-25.061052-12.530527-5.254737-0.673684-35.301053-13.608421-40.151579-12.530526-0.134737-0.404211-2.021053-1.482105 1.751579 0.134737-7.545263-3.503158-15.225263-7.141053-22.501053-9.296842l-2.425263-3.233685-17.785263-4.850526c-9.835789-5.389474-13.743158-7.949474-2.964211-5.12-25.6-8.084211-20.345263-7.545263-42.172631-14.012631l1.482105-0.808422c-7.545263-3.098947-20.210526-6.467368-24.252632-9.296842-15.764211-9.296842-82.593684-35.031579-124.766315-55.107368 6.871579 7.141053-19.267368-9.970526-22.096842-7.949474-2.155789-1.886316-7.949474-4.850526-0.673685-2.694737-22.231579-8.353684-32.336842-15.090526-48.505263-19.132631-2.155789-1.886316 5.254737 0.673684 3.233684-0.673684-1.886316-0.538947-7.275789-2.155789-9.296842-3.637895-2.021053-1.482105 3.503158 0.673684 7.141053 1.751579-22.501053-9.296842-25.869474-7.545263-28.429474-5.793684-10.913684-5.928421-16.572632-8.084211-25.465263-9.970527-3.637895-2.425263-9.835789-6.063158 4.176842-0.538947-7.814737-3.368421-47.292632-21.153684-48.909473-19.536842-2.290526-1.482105-10.913684-4.715789-13.069474-5.389474l-18.189474-7.814737-21.153684-8.757894 6.467368 3.098947a38.938947 38.938947 0 0 1-9.566315-2.56c-2.425263 6.063158-6.736842 14.416842-10.105264 22.905263l-0.134736-0.538947c-15.090526 31.124211-4.985263 14.147368-20.07579 44.732631l2.15579-1.077894c2.021053 4.311579-13.608421 27.082105-19.941053 45.810526l3.637895-6.197895c-3.098947 10.374737-16.033684 26.004211-20.614737 35.84-1.212632 2.021053 0.943158-3.637895 2.021052-6.736842-12.8 25.465263 0.538947 4.176842-7.141052 23.983158-2.56 3.098947-0.673684-5.793684-6.467369 7.275789-3.637895 6.197895-12.530526 39.612632-22.096842 56.589474 2.425263-3.637895 4.985263-7.141053 1.751579 2.15579-5.524211 14.012632-18.863158 36.244211-21.557894 49.987368-0.943158 1.616842-1.482105 2.290526-1.751579 2.290526-3.772632 10.913684-13.338947 35.031579-14.686316 42.037895-9.296842 7.68-25.195789 67.098947-29.776842 64.943158l-13.473685 32.741053-0.134736-0.943158c-8.892632 20.48-10.913684 28.294737-12.8 36.109473-2.290526 4.715789-1.347368 0.943158-1.347369 0.538948-5.524211 11.991579-8.892632 19.671579-11.722105 26.408421-1.347368 3.637895-2.694737 6.871579-4.042105 10.374737-1.616842 4.311579-3.233684 8.892632-5.12 14.147368 4.985263 1.751579 11.048421 3.772632 18.32421 6.332632l2.021053 2.694736c7.275789 2.021053 43.115789 20.884211 73.835789 31.663158-0.404211 0-1.077895 0.134737-3.637894-0.673684 34.492632 12.261053 78.821053 37.995789 93.642105 37.591579l22.770526 7.949474c-28.564211-12.530526 5.254737-0.673684-6.197895-6.467369 11.452632 4.446316 28.564211 13.877895 14.551579 8.353685l-2.021052-1.212632c-6.332632 0.808421 35.301053 16.033684 33.68421 17.650526 56.724211 23.578947 111.157895 48.235789 164.109474 70.602106l-5.12-4.850527 18.458947 7.814737c4.581053 2.56 5.793684 4.446316-7.410526-1.077895 6.467368 4.176842 22.635789 8.218947 23.174737 7.814737 25.465263 11.722105-11.183158-1.616842-3.233684 1.751579l10.778947 4.311579-2.290526-1.347368c9.162105 2.694737 10.24 2.021053 26.138947 8.757894 9.835789 4.715789 4.581053 3.503158 8.488421 5.254737-0.134737 0.134737 1.212632 0.808421 6.063158 2.56l23.04 10.24-8.623158-5.658947c10.644211 3.503158 21.827368 9.296842 11.991579 2.694737 14.416842 9.701053 86.501053 37.591579 95.797895 42.576842 14.955789 4.715789 29.237895 10.778947 46.888421 18.32421-4.176842-2.155789-6.063158-5.389474 9.162105 1.347369-7.275789 1.886316 27.216842 13.473684 38.265263 21.692631-10.24-6.602105 43.52 17.650526 27.486316 7.545264 12.530526 5.658947 0.134737 1.886316 9.431579 6.871578 30.989474 11.048421 66.290526 28.968421 104.016842 44.193685 0.808421-0.269474-5.12-3.772632 3.233684-1.212632l18.593685 11.048421c7.545263 2.829474 8.084211-0.269474 20.88421 7.27579-1.751579-1.212632-4.311579-3.098947 0.808421-1.212632 72.218947 33.414737 150.905263 60.631579 223.258947 96.741053-9.701053-5.254737-2.829474-2.56 4.850527 0.673684-4.850526-2.290526 0.673684-1.347368 0-2.425263l30.315789 15.090526c6.602105 0.269474 33.549474 13.877895 37.591579 13.204211l-9.970526-3.772632c14.147368 3.233684-16.168421-12.8-13.069474-15.090526-15.764211-3.503158-37.187368-20.210526-62.922105-26.543158-5.12-2.829474 4.985263 0.943158 2.425263-0.943158-6.602105-1.347368-14.147368-4.176842-27.621053-10.374737l1.616843 0.269474c-38.534737-15.764211-54.568421-23.983158-97.414737-42.846316l2.56 2.829474c-9.162105-4.042105-10.913684-5.389474-15.225263-7.545264-11.587368-2.290526 26.004211 11.048421 15.225263 9.431579-11.048421-8.218947-65.482105-27.486316-72.353684-34.357894-14.282105-6.063158 3.503158 3.503158-10.778948-2.56l-3.368421-2.56-4.042105-0.269474c-9.296842-4.176842-13.473684-7.275789-13.608421-8.218947 2.290526 1.077895 6.602105 2.425263 9.027368 3.503158-11.722105-6.197895-34.357895-14.012632-38.4-16.033685l13.473684 6.332632c-39.343158-15.494737-86.501053-36.648421-124.901052-50.526316l2.56 1.886316c-29.237895-10.778947-22.770526-10.374737-54.568421-23.04l1.212631 0.269474c-6.602105-2.021053-15.225263-5.12-23.848421-8.892632 8.353684 2.56-14.282105-7.814737-3.503158-4.446316-31.797895-11.722105-15.898947-5.389474-37.591579-11.452631l-4.311579-3.098948c-7.410526-1.886316-8.218947-1.616842-24.117894-7.949473 13.338947 4.446316-9.296842-5.928421 5.658947-1.212632-32.067368-16.437895-50.256842-18.054737-63.865263-28.025263-16.572632-3.233684 27.890526 13.743158 19.132632 10.913684 6.736842 4.042105-13.608421-2.829474-23.848422-7.545263-10.509474-4.446316-16.303158-11.587368-42.846315-22.63579 2.694737 0.943158 2.964211 1.077895 5.52421 2.021053-9.566316-4.985263-19.941053-7.006316-31.663158-13.473684-7.68-0.943158-15.764211-6.736842-18.863158-5.12l24.656843 9.701052c-14.147368-5.12-28.294737-7.68-50.526316-18.593684 2.021053 0.269474 9.027368 2.425263 13.877894 4.042106-6.332632-3.503158-13.069474-4.850526-19.671578-8.488422 2.964211-1.616842 29.911579 11.856842 45.541052 16.168422-6.736842-4.042105-28.833684-9.970526-20.210526-9.566316-12.126316-1.077895-26.004211-11.452632-45.136842-16.303158l1.751579-0.943158c-2.964211-0.943158-9.162105-2.694737-14.416842-4.985263l10.24 2.021052c-15.225263-4.446316-27.486316-13.204211-41.903158-18.189473 29.237895 12.261053 5.793684 4.581053 17.785263 10.778947-36.917895-13.204211-19.132632-12.530526-59.823158-28.833684 5.524211 2.021053 20.210526 9.431579 11.317895 6.602105-7.545263-3.503158-17.515789-8.353684-21.962106-11.048421-26.947368-10.913684 3.503158 3.233684-8.353684-0.673684-8.353684-5.658947-13.473684-4.715789-25.465263-9.162105l0.538947-1.482106c-30.181053-13.743158-9.431579-0.269474-36.378947-12.934736l12.530526 2.829473-14.551579-5.52421 3.637895-0.404211c-16.168421-5.254737-20.884211-7.68-35.974737-14.551579 3.098947 2.56-3.098947 1.886316-16.707368-3.772631-8.892632-4.715789 5.793684 0.673684-13.473684-7.141053 4.715789 0.808421 9.970526 1.616842 17.650526 6.602105 1.077895-0.134737 4.715789 0.808421 5.793684 0.673684-9.566316-5.12-24.926316-10.644211-31.797895-13.608421 2.694737 1.212632 5.793684 2.56 7.410527 3.503158l-28.698948-9.566315c-4.176842-2.425263-0.538947-1.347368 3.098948-0.404211-5.658947-2.155789-9.835789-3.098947-18.189474-6.467368 2.694737-0.269474 2.694737-1.751579 14.686316 2.56l-26.543158-9.431579c-1.482105-1.212632-12.934737-7.141053-9.296842-6.197895-14.416842-6.871579-37.052632-12.665263-56.050526-21.827369-1.077895-0.134737-3.233684-0.808421-7.410527-2.425263l-4.176842-1.886315-1.751579-0.808422-2.290526-1.347368c1.212632-2.290526 1.212632-1.616842 4.715789-10.105263 2.694737-6.467368 5.389474-13.338947 7.949474-21.018947l7.27579-11.317895c6.602105-17.246316-9.701053 15.494737 1.347368-13.069474 7.68-20.345263 4.985263-6.736842 8.488421-13.473684 3.098947-10.374737 8.084211-28.698947 17.515789-46.349474-2.155789 6.332632-4.581053 10.913684-6.736842 16.572632z m86.63579-209.650527c-1.347368 4.176842-3.772632 12.665263-5.928421 15.225264 0.269474-5.254737 2.56-8.488421 5.928421-15.225264z m205.069474-123.014736c-3.233684-0.808421-7.814737-2.964211-12.8-5.793685 3.772632 1.347368 8.084211 3.233684 12.8 5.793685z m890.88 360.690526l-0.404211-0.134737c-8.892632-4.311579-5.658947-2.829474 0.404211 0.134737z m18.593684 8.623158c2.021053 0.538947 1.886316 0.269474 1.212631-0.269474-1.482105-0.134737-5.658947-1.886316-10.509473-4.042105 1.212632 0.943158 3.503158 2.155789 9.296842 4.311579zM487.612632 716.261053l-3.503158-1.886316c8.488421 2.964211 6.063158 2.425263 3.503158 1.886316z" p-id="2846" fill="#d81e06"></path><path d="M319.191579 60.496842c-1.077895-0.673684-1.212632-1.212632-1.347368-1.482105-1.751579-0.404211-1.886316 0 1.347368 1.482105zM38.938947 511.191579l0.673685 0.269474H40.421053l-1.482106-0.269474zM969.296842 333.743158c-3.772632-1.886316-5.793684-2.964211-7.141053-3.907369-0.404211 0.269474 1.212632 1.347368 7.141053 3.907369zM1366.366316 482.088421l-12.261053-4.715789c5.793684 2.425263 7.814737 3.503158 10.644211 4.985263-0.134737-0.404211-2.155789-1.886316 1.616842-0.269474zM1390.618947 566.164211c-0.673684 1.886316-1.347368 3.637895-2.021052 5.52421l0.943158-0.134737c2.964211-7.545263 4.715789-13.069474 1.077894-5.389473zM1375.393684 491.654737c0.404211 1.616842 8.218947 4.446316 16.707369 7.68l-1.482106-0.673684c3.233684-0.538947-6.063158-3.637895-15.225263-7.006316zM1393.987368 500.277895c2.56 1.077895 5.254737 2.155789 7.814737 3.233684 1.347368-0.404211-3.098947-1.616842-7.814737-3.233684zM1289.835789 452.176842c3.907368 2.021053 3.233684-0.538947 5.254737 0.943158 5.12 0.269474-27.486316-9.431579-5.254737-0.943158zM1380.513684 498.661053l-2.425263-2.694737-5.254737-0.808421zM1314.357895 469.692632l13.338947 6.063157c-0.134737-0.404211 1.616842 0.269474 3.772632 0.943158-8.218947-3.368421-17.246316-7.545263-17.111579-7.006315zM1331.469474 476.698947c4.311579 1.886316 8.488421 3.503158 10.913684 4.311579-2.290526-0.943158-7.275789-2.829474-10.913684-4.311579zM1361.92 491.654737l-3.907368-2.15579-9.431579-4.176842zM1169.650526 408.791579l-14.955789-5.658947c-1.751579-0.134737 2.155789 1.886316 7.68 4.042105 3.772632 0.943158 9.296842 3.098947 7.275789 1.616842zM1212.362105 431.696842c-3.907368-2.021053-3.907368-2.425263-5.928421-3.907368l-1.212631 1.751579 7.141052 2.155789zM1169.246316 414.181053c-1.751579-0.134737-21.962105-7.410526-3.233684 0.269473 1.751579 0 16.572632 5.793684 3.233684-0.269473zM948.816842 318.922105l3.637895 1.482106 0.808421-3.368422zM750.349474 244.816842c17.111579 8.084211 4.985263-0.269474 20.345263 7.27579 4.446316 0.943158-12.530526-6.197895-8.084211-4.985264-10.913684-3.772632-16.303158-6.467368-12.261052-2.290526zM762.475789 246.972632c1.751579 0.538947 3.503158 1.077895 5.524211 1.751579-2.964211-1.077895-4.581053-1.482105-5.524211-1.751579zM1170.997895 1004.328421l11.048421 5.254737-6.871579-3.907369zM1193.498947 1010.930526l1.751579 3.098948 7.545263 0.943158c-2.56-0.943158-7.545263-2.694737-9.296842-4.042106zM168.286316 167.208421l-0.134737-1.077895c-1.212632 1.482105-2.425263 4.176842-4.71579 9.296842l4.850527-8.218947zM103.208421 318.652632l1.077895-2.694737-3.907369 4.176842zM52.143158 447.056842c2.155789-5.254737 4.581053-11.452632 6.736842-16.707368-4.581053 11.722105-9.701053 17.246316-6.736842 16.707368z" p-id="2847" fill="#d81e06"></path><path d="M1188.648421 951.242105c4.446316 2.021053 3.368421 0 4.176842 0.134737-7.68-2.964211-4.176842 0.269474-4.176842-0.134737zM1112.252632 922.408421l1.482105 0.134737-11.587369-3.368421zM1041.92 893.035789c5.658947 4.985263 25.6 10.374737 37.861053 16.437895l1.886315 1.347369 6.467369 0.538947c-15.494737-6.197895-35.705263-13.338947-46.214737-18.324211zM1006.484211 872.286316c1.886316 1.886316-8.488421-2.694737 8.623157 3.907368-0.808421-0.404211-1.077895-0.673684-1.482105-0.943158-1.616842-0.538947-3.637895-1.482105-7.141052-2.96421z" p-id="2848" fill="#d81e06"></path><path d="M1013.625263 875.385263c7.410526 2.964211-4.581053-2.829474 0 0zM979.132632 861.507368l10.105263 3.368421c-1.886316-1.347368-10.509474-5.12-7.141053-4.176842-10.105263-3.772632-8.218947-2.290526-2.96421 0.808421zM969.296842 859.351579l5.254737 1.751579c-0.943158-0.673684-2.155789-1.212632-5.254737-1.751579z" p-id="2849" fill="#d81e06"></path><path d="M985.465263 864.741053l-11.048421-3.772632c1.212632 0.943158 1.077895 1.751579 4.985263 1.886316-1.077895 0.404211 1.347368 0.538947 6.063158 1.886316zM991.393684 867.705263c5.254737 2.829474 12.261053 6.063158 2.15579 2.694737 18.728421 7.68 16.572632 4.850526-2.15579-2.694737zM1037.338947 893.574737l7.006316 3.772631 6.602105 1.886316c-3.233684-0.943158-13.743158-6.467368-13.608421-5.658947zM918.905263 834.829474c-0.808421 0.269474 2.694737 2.694737 3.233684 3.503158l7.410527 2.56c-3.503158-2.021053-10.509474-5.12-10.644211-6.063158zM922.138947 838.332632l-11.183158-3.772632c9.701053 4.176842 11.587368 4.581053 11.183158 3.772632zM966.467368 860.833684l18.458948 5.793684-21.827369-7.141052zM877.810526 817.448421l6.467369 1.482105-11.452632-2.96421zM850.324211 805.995789c4.850526 0.943158-5.524211-4.176842-0.538948-2.694736-7.545263-2.964211-14.147368-4.850526-20.075789-6.602106 6.197895 2.425263 12.665263 5.12 20.614737 9.296842zM819.738947 793.869474c3.098947 1.077895 6.467368 2.021053 9.970527 2.96421-3.368421-1.077895-6.602105-2.021053-9.970527-2.96421zM892.766316 826.610526c-0.673684-0.673684-2.021053-2.021053-7.949474-4.850526l3.637895 3.098947c1.347368 0.538947 2.829474 1.212632 4.311579 1.751579z" p-id="2850" fill="#d81e06"></path><path d="M888.589474 824.858947c-4.715789-2.021053-7.949474-3.503158-9.296842-4.042105 1.212632 0.538947 4.042105 1.886316 9.296842 4.042105zM893.844211 827.149474c-0.404211-0.134737-0.673684-0.269474-1.077895-0.404211 0.404211 0.269474 0.538947 0.404211 1.077895 0.404211zM938.711579 847.764211c-6.602105-1.886316-20.210526-6.736842-7.949474-0.134737 4.985263 1.077895-2.021053-2.694737 7.949474 0.134737zM898.425263 830.922105l11.317895 5.12c-0.134737-0.404211-1.886316-1.886316 1.347368-0.808421l-12.665263-4.311579zM892.631579 829.035789l5.793684 1.886316-4.176842-1.886316zM838.736842 803.435789c-5.254737-1.482105-10.644211-3.772632-16.707368-6.197894 6.467368 2.964211 13.204211 6.063158 19.536842 8.757894 1.077895-0.134737 4.311579 0.404211-2.829474-2.56zM862.989474 814.08a9.283368 9.283368 0 0 1-1.077895-0.404211c0.538947 0.404211 1.077895 0.538947 1.077895 0.404211zM761.802105 771.772632l0.943158 0.673684 0.269474-0.134737z" p-id="2851" fill="#d81e06"></path><path d="M842.644211 806.534737c4.850526 2.290526 7.949474 3.233684 10.913684 4.042105-3.772632-1.482105-7.68-3.098947-11.856842-4.715789-0.538947 0.134737-0.673684 0.134737 0.943158 0.673684zM802.627368 787.402105l8.218948 4.311579c-2.290526-1.482105-7.141053-4.311579-8.218948-4.311579zM860.294737 812.597895l0.808421 0.269473c-1.482105-1.077895-1.347368-0.943158-0.808421-0.269473zM860.294737 812.597895c-2.56-0.808421-4.715789-1.347368-6.871579-1.886316 2.964211 1.077895 5.793684 2.155789 8.353684 2.96421a4.473263 4.473263 0 0 0-1.482105-1.077894zM740.109474 772.715789c1.347368-0.808421 14.821053 3.503158 25.465263 9.431579 11.317895 3.637895 5.928421-3.368421-2.694737-9.701052-0.538947 0.404211-0.808421 0.943158-12.395789-3.098948 3.637895 2.290526 24.387368 12.126316 14.416842 9.296843-15.225263-5.658947-12.126316-5.658947-19.132632-9.296843 5.524211 4.176842-19.941053-5.793684-17.650526-2.155789l13.473684 4.715789c0 0.404211-5.12-1.077895-1.482105 0.808421zM784.168421 781.608421l4.71579 1.751579c-5.254737-2.425263-8.757895-4.581053-15.36-8.488421-7.949474-2.694737-9.835789-2.829474-10.509474-2.694737l22.905263 9.83579-1.751579-0.404211zM809.903158 792.387368c-4.176842-0.134737-15.629474-4.311579-9.431579 0 13.743158 5.658947 10.105263 2.964211 18.458947 5.793685-22.231579-8.892632 6.602105 1.886316-9.027368-5.524211 4.446316 1.751579 8.353684 3.233684 11.991579 4.71579l-11.183158-5.389474c0.134737 0.134737 0.269474 0.134737 0.40421 0.269474h0.134737c0.943158 0.538947 1.212632 0.808421 0.134737 0.269473-0.134737 0-0.404211-0.134737-0.40421-0.134737h-1.077895c-6.332632-2.964211-0.808421-0.808421 1.212631-0.134736 0.134737 0 0.269474 0 0.404211-0.134737h-0.134737l-22.366316-8.623158c4.581053 2.155789 10.374737 4.581053 20.884211 8.892631zM917.827368 845.608421c-0.673684-0.404211-0.538947-0.538947-0.538947-0.673684-1.482105-0.404211-2.155789-0.538947 0.538947 0.673684z" p-id="2852" fill="#d81e06"></path><path d="M909.069474 841.027368c1.751579 0.538947 3.233684 0.538947 8.353684 2.829474 4.311579 2.290526-0.269474 0.673684-0.269474 1.212632 3.233684 0.943158 11.452632 3.637895 1.886316-1.077895l-1.616842-0.538947c-8.757895-4.176842-19.402105-10.644211-17.785263-10.24 2.155789 2.155789 4.042105 4.042105 9.431579 7.814736zM858.677895 816.64l-18.728421-7.141053 8.892631 5.12-0.134737-0.808421c10.374737 4.581053 8.488421 2.829474 9.970527 2.829474zM760.050526 770.290526l2.964211-0.40421-11.452632-2.425263zM736.067368 760.32l1.347369-0.673684-6.602105-2.15579zM512.134737 169.768421l5.52421 1.886316c-2.56-0.808421-4.311579-1.616842-5.52421-1.886316zM473.061053 153.061053l-1.212632 0.269473c1.886316 0.404211 2.694737 0.404211 1.212632-0.269473zM149.018947 513.482105c-7.410526-4.446316-15.494737-9.970526-15.090526-8.218947l1.886316 2.425263c5.658947 2.021053 9.701053 3.907368 13.20421 5.793684zM205.204211 163.705263l-1.347369 2.15579c-0.404211 2.155789-0.673684 4.042105-0.943158 5.793684 0.673684-2.425263 1.482105-5.12 2.290527-7.949474zM201.970526 155.755789l5.254737-9.970526c-1.212632 2.155789-2.964211 5.389474-5.254737 9.970526zM726.366316 258.290526l6.871579 1.347369c-9.835789-4.311579-5.793684-1.886316-6.871579-1.347369zM491.115789 657.785263c-6.602105-3.368421-11.856842-5.928421-16.572631-7.949474 7.814737 4.176842 13.877895 8.218947 16.572631 7.949474zM490.711579 177.583158c3.368421 1.212632 4.985263 1.482105 4.985263 1.077895-3.503158-1.347368-5.524211-1.886316-4.985263-1.077895zM454.871579 641.751579c1.212632 0.673684 2.290526 1.212632 3.503158 1.886316 5.12 1.886316 10.105263 3.772632 16.168421 6.467368-5.928421-3.368421-12.665263-6.602105-19.671579-8.353684zM1319.343158 672.067368c-0.269474 0.538947-0.673684 1.212632-0.943158 1.751579 0.134737 0.134737 0.538947-0.538947 0.943158-1.751579zM1210.745263 892.092632c0.943158-2.290526 2.425263-5.928421 3.772632-9.296843-0.673684 1.616842-1.886316 4.446316-3.772632 9.296843zM640.134737 719.225263c5.12 2.021053 0.943158 0.269474 0 0zM662.501053 735.124211c-1.077895-0.269474-2.021053-0.404211-2.290527-0.134737 0.538947-0.269474 1.347368-0.269474 2.290527 0.134737zM400.842105 628.682105c-0.134737 0-0.269474-0.134737-0.40421-0.134737 1.347368 0.943158 1.077895 0.943158 0.40421 0.134737zM647.545263 723.132632c-1.886316-0.943158-4.042105-2.021053-6.332631-3.098948 1.077895 0.404211 2.964211 1.347368 6.332631 3.098948zM646.736842 722.054737c1.751579 0.808421 3.098947 1.347368 4.311579 2.021052 0.808421 0 0.269474-0.269474-4.311579-2.021052zM632.993684 716.395789c2.829474 1.212632 5.524211 2.425263 8.084211 3.637895-0.943158-0.538947-1.347368-0.808421-1.077895-0.673684-1.347368-0.673684-3.503158-1.616842-7.006316-2.964211zM1084.092632 414.181053c0.269474 0.134737 0.673684 0.404211 1.077894 0.538947 5.254737 1.616842 2.964211 0.808421-1.077894-0.538947zM85.692632 431.157895c-0.134737 0.269474-0.134737 0.404211-0.134737 0.538947 0.134737-0.269474 0.269474-0.538947 0.40421-0.673684l-0.269473 0.134737z" p-id="2853" fill="#d81e06"></path><path d="M92.294737 412.698947c-1.616842 8.488421-3.637895 12.8-6.467369 18.458948l6.467369-4.446316v-14.012632z" p-id="2854" fill="#d81e06"></path><path d="M605.911579 208.707368l-12.261053-6.602105c16.303158 4.446316 27.082105 9.835789 15.898948 3.098948-3.637895 3.503158-49.852632-20.48-53.490527-16.976843l-8.08421-4.446315 5.254737 2.021052c-15.494737-8.892632-13.473684-2.021053-34.357895-11.587368-7.275789-3.368421-12.126316-6.197895-6.871579-4.581053l-16.842105-5.793684c-4.715789-2.155789-3.233684-2.290526 1.482105-0.269474l-25.195789-10.24h0.269473c-3.907368-0.808421-12.395789-3.233684-16.437895-4.446315-6.063158-3.233684 3.368421 0.943158 2.021053-0.269474l-14.282105-4.850526c-5.12-3.503158 6.736842 0.269474 16.303158 4.446315-11.183158-9.701053-11.991579-3.772632-38.804211-17.92l13.204211 4.850527c-7.410526-5.928421-18.054737-9.431579-32.202106-17.111579 3.233684 2.290526 28.025263 16.168421 12.530527 10.913684-4.042105-2.155789-9.566316-4.581053-18.054737-7.141053 0.538947-1.482105-7.545263-4.446316-17.51579-8.623158l1.482106-1.751579c-10.913684-3.907368-10.509474-2.56-17.246316-4.311579-11.856842-5.254737-13.743158-7.814737-15.898947-10.24-18.997895-8.353684 12.126316 8.084211-10.644211-1.077894-15.629474-7.410526-27.082105-11.317895-46.618947-18.189474-10.778947-5.389474 2.425263-0.404211-1.347369-2.694737l-10.509473-2.56c-2.425263-1.077895-1.347368-1.212632-0.943158-1.347368-8.623158-2.829474-1.482105 1.751579-14.821053-3.233684-1.347368 0.538947-8.623158-3.098947-18.32421-7.949474-1.482105 2.964211-2.964211 6.063158-4.581053 9.162105l-4.581053 9.431579c-2.290526 4.985263-4.446316 10.105263-5.658947 14.95579-2.290526 3.772632-0.404211-2.425263-1.751579-1.482106-7.68 22.905263-6.871579 19.536842-12.261053 38.669474l-7.814737 14.955789c6.332632-10.778947 1.886316 4.581053-2.021052 17.92 2.425263-3.772632 4.446316-7.141053 5.793684-9.162105L203.183158 175.157895c-1.347368 2.290526-1.212632 0-0.538947-3.637895-0.404211 1.482105-0.808421 2.829474-1.077895 3.907368-3.772632 7.006316-3.368421 2.694737-2.290527-2.96421 1.482105-2.290526 2.829474-4.581053 4.311579-6.871579 0.943158-5.524211 1.616842-10.778947 0-10.24-0.269474 1.482105-1.212632 4.042105-2.290526 6.871579 0.269474-1.482105 0.269474-2.425263-0.134737-1.886316-0.538947 0.538947-0.943158 2.964211-1.886316 6.467369l-4.176842 3.637894 0.404211 1.482106-12.665263 26.00421c-5.793684 19.941053-9.431579 37.995789-21.288421 68.581053 1.482105-8.218947-2.021053-2.694737-3.772632-3.907369 5.524211-7.410526 9.027368-23.848421 16.033684-39.343158-3.637895 8.084211-3.772632 5.928421-3.233684 3.637895l-9.970526 28.698947c-1.347368-1.347368-3.637895 5.389474-7.410527 12.530527 5.389474-4.176842-6.736842 21.692632-10.509473 33.549473-1.347368 0.269474-1.212632-2.964211 4.850526-16.707368-8.757895 14.282105-4.715789 21.288421-12.934737 35.570526 1.347368-3.368421 2.290526-5.12 2.425263-6.736842-2.425263 8.353684-11.317895 27.351579-10.24 22.366316l1.347369-3.368421c-9.835789 22.366316-28.833684 68.581053-27.621053 73.027368-0.404211 0.134737-1.886316-4.311579-1.886316-5.928421l-7.949473 43.924211c-0.808421-4.446316-11.856842 6.871579-5.389474-12.39579-2.56 5.254737-5.793684 11.722105-9.701053 23.309474 1.886316-3.503158 7.141053-7.68 5.254737-2.694737-4.176842 6.332632-5.524211 8.623158-7.006316 11.183158l-8.353684 15.36c2.021053-4.042105 2.829474-3.368421 2.829474-0.673684s-0.808421 6.871579-2.829474 11.722105l0.538948 0.269474c-0.538947-0.134737-1.077895 0-1.616842 0.134737-1.482105 0.404211-4.446316 2.425263-3.233685-1.077895l-0.808421 2.694737 15.494737 4.581052c4.985263 1.482105 7.410526 1.886316 11.183158 2.829474-5.658947-1.616842-2.155789 2.56 2.155789 5.524211-1.886316-1.616842 18.593684 7.949474 24.522106 9.970526l-8.757895-4.715789c24.117895 10.778947 26.138947 5.254737 50.122105 15.494736-3.233684-0.538947-9.027368 1.347368 2.964211 7.006316 6.332632 0.538947 28.564211 1.886316 50.526316 9.431579l3.637894 2.694737 16.842106 5.928421c-11.317895-1.616842-42.307368-7.949474-58.88-12.395789 8.757895 4.581053 2.021053 2.290526 15.76421 7.949473 4.446316 2.964211-8.084211-1.616842-12.126316-3.368421l31.528421 14.012632c-0.538947-2.694737 25.195789 8.084211 24.656842 5.928421l-35.435789-12.39579c-0.538947-2.694737 22.501053 2.425263 44.732632 12.261053 5.389474 3.233684-5.793684 1.886316-5.658948 2.829474 3.233684 0.538947 21.962105 7.68 23.848421 9.027368l-9.970526-2.96421c12.261053 6.063158 21.557895 5.793684 35.84 14.147368 5.12 2.290526 14.416842 9.162105 15.76421 8.353684-7.410526-5.928421-6.063158-14.012632 0.404211-13.473684 1.751579 0.943158 26.273684 13.743158 31.797895 17.381053 7.814737 5.524211-14.686316-0.943158-8.084211 3.772631 0.538947-0.404211 5.524211 0.808421 7.68 1.482105 5.254737 2.829474-2.964211 0.808421 9.027369 5.524211 2.829474-1.347368 23.983158 10.374737 6.332631 0.538947 11.856842 4.311579 12.126316 5.658947 25.734737 11.317895-3.772632-3.233684 14.147368 0.538947 26.004211 4.71579-0.943158 0.269474 1.347368 2.021053 2.56 2.96421 23.713684 10.24 36.109474 16.572632 58.206315 25.869474 1.886316 1.347368 12.261053 6.467368 7.27579 5.52421 3.368421 0.943158 6.602105 1.482105 13.473684 4.311579 12.530526 7.410526-15.36-6.197895-6.197895 0.269474 1.347368-0.808421 18.458947 5.793684 28.429474 9.027368-2.155789-3.098947-22.366316-9.835789-32.471579-13.20421 1.077895-2.694737 19.132632 1.751579 42.846316 10.24 18.728421 7.141053 7.275789 5.12 10.64421 6.063158 34.357895 14.955789 31.393684 7.814737 59.284211 21.827368 10.644211 6.467368-0.943158 3.503158 1.077895 5.793684-15.225263-5.658947-22.635789-10.778947-32.741053-14.955789l12.126316 6.063158c-4.985263-1.482105-15.225263-5.254737-20.48-8.084211 8.892632 5.524211 58.341053 24.926316 84.48 37.456842 4.985263 1.482105 13.338947 4.311579 9.835789 2.021053l-8.488421-3.368421c-7.141053-4.581053 16.707368 4.850526 6.197895-0.269474 11.722105 3.772632 25.061053 7.68 40.690526 15.090527l2.15579 3.098947c-0.134737-0.673684-9.970526-5.524211-14.686316-6.871579 7.006316 1.886316 23.309474 12.8 31.663158 13.473684l-10.644211-6.063158c11.722105 3.772632 26.677895 7.68 40.55579 14.282106-5.658947-4.581053-3.368421-1.212632-12.530527-7.545264 7.545263 6.332632-36.109474-15.36-23.309473-6.602105-9.296842-6.871579-17.381053-8.623158-29.911579-16.437895 0.134737 0.808421 4.311579 3.233684-7.410526-2.155789-0.673684 0-2.021053-0.404211-2.829474-0.538947-0.404211-0.134737-0.538947-0.269474-0.808421-0.404211l0.673684 0.404211c-0.538947-0.134737-0.673684-0.134737 0.269474 0.134736 2.694737 1.482105 4.850526 2.694737 5.658947 3.503158-6.467368-1.077895-25.330526-9.027368-32.067368-10.913684-6.871579-3.233684 3.233684 0.538947-0.269474-1.751579l-9.970526-2.829474c-0.404211-1.751579-17.785263-10.24-0.808421-4.042105l-14.95579-6.332631c-8.488421-4.446316-20.48-9.835789-28.16-12.39579-6.871579-3.233684-18.458947-5.928421-11.856842-4.446316l-23.713684-9.027368-0.134737-0.404211c-23.04-9.835789-48.505263-17.650526-73.83579-31.393684-7.949474-2.964211-16.168421-5.928421-28.968421-11.722105l-2.021052-2.290526c-10.105263-3.772632-29.507368-13.877895-34.357895-14.416843-9.431579-7.814737-48.101053-21.153684-65.482105-29.103157l-1.347369 1.347368c-11.991579-5.12-23.848421-9.566316-39.073684-15.225263l0.404211 1.751579c-13.473684-4.311579-32.875789-14.955789-53.35579-23.444211 1.616842 0 6.736842 2.425263 10.24 4.176842-23.174737-13.473684-52.547368-19.402105-73.701052-30.989473-5.793684-1.751579-9.701053-3.637895-13.338948-5.658948 0.538947 0.134737 0.943158 0.404211 1.347369 0.538948-0.538947-0.269474-1.347368-0.538947-2.290527-0.943158l-7.410526-3.907369c2.155789 1.347368 4.311579 2.56 6.197895 3.503158-4.311579-1.751579-10.778947-4.311579-17.246316-6.602105l-2.021053-2.694737a6.561684 6.561684 0 0 0-1.482105-0.538947c-5.928421-3.233684-5.254737-1.347368-2.425263 1.077895-3.233684-1.077895-6.332632-2.021053-8.757895-2.56-4.042105-4.581053-16.976842-6.197895-22.770526-11.587369-1.751579-0.134737-6.736842-2.021053-12.39579-4.042105l-4.446315-1.616842-2.694737-0.808421c-1.886316-0.538947-3.637895-0.943158-5.254737-1.482106 0.269474-1.751579 0.404211-3.233684-0.134737-3.907368 0.538947-0.134737 1.212632-1.482105 0.269474 0.943158 1.886316-3.637895 5.793684-11.991579 7.545263-18.324211l3.098947-2.155789 3.907369-16.437895c5.12-8.892632 7.410526-12.530526 4.985263-2.56 7.141053-23.444211 6.871579-18.593684 12.665263-38.669474l0.808421 1.482106c2.829474-6.871579 5.793684-18.458947 8.488421-22.096842 8.757895-14.282105 32.067368-75.452632 50.79579-113.717895-6.871579 6.063158 9.296842-17.515789 7.141052-20.210526 1.751579-1.886316 4.581053-7.141053 2.694737-0.538948 7.545263-20.345263 14.012632-29.507368 17.51579-44.328421 1.886316-1.886316-0.538947 4.850526 0.808421 2.964211 0.538947-1.616842 1.886316-6.602105 3.368421-8.488421 1.347368-1.886316-0.538947 3.233684-1.482106 6.602105 8.488421-20.48 6.736842-23.713684 4.850527-26.138947 5.524211-9.835789 7.545263-15.090526 9.027368-23.309474 2.290526-3.233684 5.658947-8.892632 0.673684 3.907368 3.098947-7.141053 19.536842-43.115789 17.92-44.732631 1.482105-2.021053 4.311579-9.970526 4.850527-11.856842 3.503158-7.949474 5.389474-12.261053 7.141052-16.572632 1.482105-3.503158 2.829474-7.006316 5.524211-13.338947l-1.482105 2.56c-0.134737-2.155789 0.538947-4.446316 1.347368-6.602106 1.886316 0.673684 3.907368 1.751579 6.332632 2.964211 2.021053 0.943158 5.389474 2.56 9.566315 4.311579l-0.40421 0.134737c28.429474 14.012632 12.934737 4.446316 40.825263 18.458947l-0.943158-2.155789c4.042105-2.021053 24.656842 12.530526 41.768421 18.32421l-5.254737-2.694737c9.566316 2.694737 23.578947 15.090526 32.606316 19.267369 1.886316 1.077895-3.368421-0.943158-6.197895-1.886316 23.174737 11.991579 3.907368-0.673684 21.962106 6.467368 2.829474 2.425263-5.389474 0.943158 6.602105 6.197895 5.658947 3.368421 36.244211 11.183158 51.738947 20.07579-3.233684-2.290526-6.467368-4.581053 2.021053-1.751579 12.8 4.985263 33.010526 17.515789 45.541052 19.806315 1.482105 0.943158 2.021053 1.347368 2.021053 1.616842 9.970526 3.368421 31.932632 12.126316 38.4 13.204211 6.736842 8.892632 61.305263 22.905263 59.149474 27.486316l29.911579 12.261052-0.943158 0.134737c18.997895 8.353684 26.138947 10.105263 33.414737 11.722106 4.311579 2.155789 0.808421 1.212632 0.40421 1.347368 27.486316 12.665263 30.315789 13.608421 54.703158 21.153684l1.751579 2.56c6.736842 1.751579 39.343158 19.402105 67.368421 29.103158-0.404211 0-1.077895 0.134737-3.233684-0.538947 31.528421 11.183158 71.814737 35.301053 85.423158 34.357894l20.88421 7.141053c-26.138947-11.452632 4.985263-0.808421-5.52421-6.197895 10.509474 4.042105 26.004211 12.934737 13.20421 7.814737l-1.886315-1.077895c-5.928421 0.943158 32.202105 14.821053 30.585263 16.437895 51.738947 21.557895 101.456842 44.463158 149.692631 64.943158l-4.581052-4.581053 16.842105 7.141053c4.176842 2.425263 5.254737 4.311579-6.736842-0.943158 5.793684 3.907368 20.614737 7.410526 21.153684 7.006316 23.174737 10.778947-10.374737-1.212632-3.098947 1.886316l9.835789 3.907368-2.155789-1.212631c8.353684 2.425263 9.431579 1.751579 23.848421 7.949473 9.027368 4.311579 4.042105 3.368421 7.68 4.985263-0.134737 0.134737 1.077895 0.673684 5.52421 2.425264l21.153684 9.162105-7.814736-5.389474c9.835789 3.098947 19.941053 8.488421 11.048421 2.290526 13.069474 9.162105 78.821053 34.492632 87.309473 39.208422 13.743158 4.311579 26.812632 9.701053 42.846316 16.707368-3.907368-2.021053-5.389474-5.12 8.353684 1.077895-6.871579 2.021053 24.791579 12.530526 34.762106 20.210526-4.581053-3.098947 5.389474 0.943158 14.551579 4.581053 2.694737 1.077895 3.907368 1.482105 4.985263 1.886315 1.212632 0.404211 2.290526 0.673684 3.098947 0.943158 1.616842 0.404211 2.56 0.269474 0.538947-1.482105 1.886316 0.943158 2.829474 1.482105 3.098948 1.751579-1.347368 1.751579-1.616842-0.269474-4.042105 3.503158-0.404211 2.021053-3.907368 10.913684-7.006316 18.189474-3.233684 7.410526-6.736842 15.225263-10.24 23.174736-7.141053 15.898947-14.821053 32.471579-21.692632 49.717895 0.269474 0.808421 3.503158-4.581053 1.347369 3.098948l-10.374737 16.842105c-2.56 6.871579 0.538947 7.545263-6.602106 19.132631 1.212632-1.482105 2.964211-3.907368 1.212632 0.808421-30.854737 65.886316-55.376842 137.701053-89.061053 203.587369 4.985263-8.757895 2.425263-2.56-0.40421 4.446316 2.155789-4.446316 1.347368 0.673684 2.425263 0.134736l-14.012632 27.621053c-0.134737 6.063158-12.665263 30.585263-11.991578 34.357895l3.503157-9.162105c-2.694737 12.934737 12.261053-14.551579 14.416843-11.587369 2.964211-14.551579 18.863158-33.818947 24.252631-57.397895 2.694737-4.581053-0.808421 4.581053 0.943158 2.290527 1.077895-6.063158 3.637895-12.934737 9.431579-25.19579l-0.269474 1.482106c14.416842-35.301053 22.096842-49.717895 39.477895-88.791579l-2.694737 2.290526c3.772632-8.353684 4.985263-9.970526 7.006316-13.743158 1.886316-10.644211-10.105263 23.713684-8.892632 13.877895 7.68-9.970526 25.195789-59.688421 31.797895-65.886316 5.524211-13.069474-3.368421 3.098947 2.15579-9.970526l2.425263-3.098948 0.134737-3.772631c3.772632-8.488421 6.736842-12.261053 7.68-12.261053-0.943158 2.021053-2.290526 5.928421-3.098948 8.218947 5.793684-10.644211 12.8-31.393684 14.686316-35.031579l-5.793684 12.261053c6.736842-17.111579 14.686316-35.84 22.501052-54.433684 3.907368-9.296842 7.68-18.728421 11.452632-27.75579 4.446316-11.183158 8.623158-21.962105 12.8-32.336842-2.694737-1.077895-5.254737-2.021053-7.814737-2.96421l2.964211 2.021052c-8.488421-3.368421-14.282105-5.658947-18.863158-7.410526-3.637895-1.482105-6.332632-2.829474-9.027369-4.042105-5.524211-2.56-11.183158-5.524211-25.734736-11.183158l1.077894 0.269474c-6.063158-1.751579-13.877895-4.581053-21.827368-8.084211 7.68 2.290526-13.069474-7.275789-3.098948-4.176842-29.103158-10.644211-14.551579-4.850526-34.357894-10.24l-3.907369-2.964211c-6.871579-1.616842-7.545263-1.347368-22.096842-7.141052 12.261053 4.042105-8.488421-5.658947 5.389474-1.347369-29.103158-15.225263-45.945263-16.303158-58.206316-25.869473-15.225263-2.694737 25.330526 12.8 17.381053 10.24 6.063158 3.772632-12.395789-2.425263-21.827369-6.736842-9.566316-4.176842-14.686316-10.913684-38.938947-21.153685 2.425263 0.943158 2.694737 0.943158 5.12 1.886316-8.757895-4.581053-18.324211-6.332632-28.833684-12.395789-7.006316-0.673684-14.416842-6.197895-17.246316-4.446316l22.501053 8.757895c-12.934737-4.715789-26.004211-6.736842-46.08-16.976842 1.886316 0.134737 8.353684 2.155789 12.665263 3.503157-5.793684-3.233684-11.856842-4.446316-17.92-7.814736 2.829474-1.751579 27.216842 10.913684 41.633684 14.686315-6.063158-3.772632-26.273684-9.027368-18.458947-8.757894-11.183158-0.673684-23.713684-10.509474-41.229474-14.821053l1.751579-1.077895c-2.694737-0.808421-8.353684-2.425263-13.204211-4.446315l9.431579 1.751578c-14.012632-3.907368-25.061053-12.261053-38.130526-16.707368 26.677895 11.183158 5.254737 4.311579 16.033684 10.105263-33.818947-11.856842-17.381053-11.856842-54.568421-26.677895 5.12 1.886316 18.324211 8.757895 10.24 6.197895-6.871579-3.233684-15.898947-7.68-19.941053-10.374737-24.522105-9.970526 3.098947 3.098947-7.68-0.40421-7.545263-5.254737-12.261053-4.311579-23.309473-8.218948l0.538947-1.482105c-27.486316-12.665263-8.757895 0-33.28-11.722105l11.452632 2.290526-13.338948-4.985263 3.368421-0.538947c-14.821053-4.715789-18.997895-6.871579-32.741052-13.204211 2.829474 2.425263-2.964211 1.886316-15.36-3.233684-8.084211-4.446316 5.254737 0.538947-12.261053-6.602105 4.311579 0.673684 9.162105 1.347368 16.168421 5.928421 0.943158-0.134737 4.311579 0.673684 5.254737 0.538947-8.623158-4.850526-22.635789-9.835789-28.968421-12.530526 2.425263 1.077895 5.254737 2.425263 6.736842 3.233684l-26.273684-8.623158c-3.772632-2.290526-0.404211-1.347368 2.96421-0.538947-5.254737-2.021053-9.027368-2.829474-16.707368-5.793684 2.425263-0.404211 2.56-1.886316 13.473684 2.021052l-24.791579-8.757895c-1.347368-1.212632-11.722105-6.736842-8.488421-5.793684-13.069474-6.332632-33.818947-11.452632-51.2-19.941052-1.077895-0.134737-2.964211-0.673684-6.871579-2.15579-16.572632-7.275789-30.72-14.955789-51.2-21.692631l-10.24-6.871579c-15.764211-6.063158 14.012632 9.162105-12.126316-0.943158-18.593684-7.006316-6.063158-4.715789-12.126315-8.084211-9.566316-2.694737-26.273684-7.141053-42.307369-15.898947 6.197895 2.290526 10.374737 4.446316 15.629474 6.332631zM414.450526 129.347368c3.772632 1.212632 11.587368 3.368421 14.012632 5.389474-4.985263-0.134737-7.949474-2.155789-14.012632-5.389474z m-223.932631 61.170527c0.673684-2.964211 2.694737-7.141053 5.254737-11.722106-1.212632 3.637895-2.964211 7.68-5.254737 11.722106z m393.566316 506.610526l-0.404211-0.134737c-8.084211-4.042105-5.254737-2.56 0.404211 0.134737z m16.842105 7.814737c1.751579 0.538947 1.751579 0.269474 1.077895-0.269474-1.347368-0.134737-5.254737-1.751579-9.566316-3.637895 1.212632 0.943158 3.233684 2.155789 8.488421 3.907369z m533.018947-257.886316l-3.233684-1.751579c7.814737 2.694737 5.524211 2.290526 3.233684 1.751579z" p-id="2855" fill="#d81e06"></path><path d="M202.374737 156.698947c0.673684-0.943158 1.077895-1.077895 1.482105-1.212631 0.404211-1.347368 0.134737-1.482105-1.482105 1.212631zM725.153684 258.021053l0.538948 0.269473h0.673684l-1.212632-0.269473zM329.970526 605.911579c-3.503158-1.751579-5.254737-2.829474-6.467368-3.637895-0.404211 0.269474 1.077895 1.212632 6.467368 3.637895zM692.951579 740.648421l-11.183158-4.176842c5.389474 2.155789 7.141053 3.233684 9.701053 4.715789-0.134737-0.538947-2.021053-1.751579 1.482105-0.538947zM784.303158 790.096842c1.616842 0.538947 3.368421 1.347368 5.12 1.886316l-0.134737-0.943158c-6.871579-2.829474-11.856842-4.311579-4.985263-0.943158zM701.035789 750.08c0.404211 1.616842 7.410526 4.042105 15.225264 7.141053l-1.347369-0.538948c2.964211-1.077895-5.524211-3.772632-13.877895-6.602105zM718.012632 757.76c2.425263 0.943158 4.850526 2.021053 7.141052 2.964211 1.212632-0.404211-2.829474-1.347368-7.141052-2.964211zM623.023158 713.296842c3.503158 1.886316 2.964211-0.673684 4.850526 0.673684 4.715789 0.134737-25.195789-8.218947-4.850526-0.673684zM705.482105 756.816842l-2.155789-2.829474-4.850527-0.538947zM645.12 730.004211l12.126316 5.658947c-0.134737-0.404211 1.616842 0.134737 3.503158 0.808421-7.545263-3.233684-15.629474-6.871579-15.629474-6.467368zM660.749474 736.606316c3.907368 1.751579 7.68 3.233684 9.970526 3.907368-2.021053-0.943158-6.602105-2.964211-9.970526-3.907368zM688.505263 750.08l-3.503158-1.886316-8.623158-3.772631zM513.077895 674.088421l-13.608421-5.254737c-1.616842 0 1.886316 1.886316 7.006315 3.772632 3.368421 0.943158 8.488421 2.829474 6.602106 1.482105zM551.882105 695.376842c-3.503158-1.886316-3.637895-2.290526-5.389473-3.637895l-1.212632 1.751579 6.602105 1.886316zM512.538947 679.343158c-1.616842 0-20.075789-6.602105-3.098947 0.40421 1.616842 0 15.36 5.254737 3.098947-0.40421zM311.376842 591.898947l3.503158 1.347369 0.808421-3.368421zM130.021053 524.395789c15.629474 7.410526 4.581053-0.404211 18.593684 6.602106 4.042105 0.808421-11.452632-5.658947-7.27579-4.71579-9.970526-3.233684-14.821053-5.793684-11.317894-1.886316z" p-id="2856" fill="#d81e06"></path><path d="M141.338947 526.282105c1.616842 0.538947 3.233684 0.943158 5.12 1.616842-2.964211-0.943158-4.311579-1.347368-5.12-1.616842zM1193.364211 928.875789l-4.985264 9.970527 3.772632-6.197895zM1187.435789 949.490526l-2.96421 1.616842-0.808421 6.871579c0.808421-2.425263 2.56-7.006316 3.772631-8.488421zM387.772632 113.178947l-0.943158 0.134737c1.347368 1.212632 3.772632 2.290526 8.488421 4.311579l-7.545263-4.446316zM525.743158 173.271579l-2.290526-1.077895 3.637894 3.503158zM643.233684 219.755789c-4.715789-1.886316-10.374737-4.176842-15.225263-6.063157 10.509474 3.907368 15.494737 9.027368 15.225263 6.063157z" p-id="2857" fill="#d81e06"></path><path d="M439.646316 516.176842c32.606316 13.608421 41.498947 5.793684 65.886316-40.555789 4.176842 6.736842 12.530526 14.416842 18.728421 18.32421-28.564211 52.412632-45.271579 64.404211-93.911579 43.924211l-111.831579-46.888421c-47.831579-20.075789-59.284211-34.627368-43.924211-71.410527l62.652632-149.557894 22.366316 9.431579-20.48 49.04421 156.16 65.347368 32.875789-78.416842-194.425263-81.381052 9.162105-21.827369 217.061053 90.947369-57.532632 137.027368-22.770526-9.566316 6.197895-14.955789L329.701053 350.315789l-33.010527 78.95579c-7.949474 18.863158-3.098947 25.734737 29.237895 39.343158l113.717895 47.562105zM767.730526 659.402105c11.317895 4.715789 15.36 0.134737 30.854737-33.414737 3.503158 6.063158 11.048421 13.069474 16.707369 17.246316-19.941053 40.151579-30.450526 47.696842-54.164211 37.726316l-45.810526-19.132632c-27.216842-11.452632-31.258947-21.153684-21.288421-44.732631l31.12421-74.509474-52.682105-22.096842c-30.450526 60.092632-59.553684 85.827368-140.261053 70.602105 0.538947-6.467368-1.482105-17.515789-3.907368-23.44421 72.757895 15.090526 96.067368-5.12 121.802105-56.589474l-79.494737-33.28 8.892632-21.288421 262.602105 109.945263-8.892631 21.288421-85.827369-35.974737-30.989474 74.105264c-3.637895 8.623158-2.155789 11.048421 10.105264 16.168421l41.229473 17.381052zM626.661053 426.442105l-21.827369-9.162105 27.486316-65.482105 115.469474 48.370526c0-11.587368-0.808421-25.6-2.15579-36.783158l24.791579 2.964211c2.425263 14.416842 4.042105 32.336842 3.772632 44.867368l105.229473 44.058947-27.486315 65.482106-22.770527-9.566316 18.593685-44.328421-202.509474-84.749474-18.593684 44.328421z m17.515789 16.842106l8.623158-20.614737 161.145263 67.503158-8.623158 20.614736-161.145263-67.503157zM834.021053 670.72c29.103158 6.871579 73.701053 15.36 116.816842 23.983158l-6.871579 21.423158c-40.96-7.006316-83.941053-15.090526-115.873684-21.153684l5.928421-24.252632z m140.8-34.896842c-2.829474 5.793684-5.793684 14.821053-7.006316 19.941053-89.061053-19.671579-101.052632-21.557895-109.406316-20.884211 0.673684-4.985263 1.482105-17.650526 1.482105-24.656842 7.141053 1.212632 17.515789-2.425263 31.393685-9.431579 8.488421-3.503158 26.812632-12.665263 48.101052-25.869474-39.747368-11.722105-47.562105-13.204211-53.086316-12.665263 0.538947-5.389474 2.021053-18.189474 1.616842-25.734737 5.793684 1.347368 14.012632-3.233684 24.252632-10.24 10.644211-6.871579 47.696842-34.896842 73.970526-64.269473l18.593685 18.593684c-25.869474 25.061053-56.454737 49.178947-84.210527 66.694737l41.229474 13.069473c10.778947-7.410526 22.096842-15.764211 32.067368-23.848421l14.95579 20.614737c-33.145263 23.713684-70.467368 45.675789-105.229474 61.709474l71.27579 16.976842z m16.033684 12.665263l130.96421 54.837895-47.157894 112.774737-22.096842-9.296842 4.715789-11.317895-87.309474-36.513684-5.254737 12.530526-21.557894-8.892632 47.696842-114.122105z m13.069474 29.372632l-25.465264 60.766315 87.309474 36.513685 25.465263-60.766316-87.309473-36.513684z m103.882105-95.258948l-19.402105 46.349474 62.517894 26.138947-8.892631 21.288421-145.92-61.170526 8.892631-21.288421 60.631579 25.465263 19.402105-46.349474-68.446315-28.56421 9.027368-21.557895 68.446316 28.698948 16.707368-39.747369 22.770527 9.566316-16.707369 39.747368 67.233684 28.16-9.027368 21.557895-67.233684-28.294737z" p-id="2858" fill="#d81e06"></path></svg>