<?xml version="1.0" standalone="no"?><!DOCTYPE svg PUBLIC "-//W3C//DTD SVG 1.1//EN" "http://www.w3.org/Graphics/SVG/1.1/DTD/svg11.dtd"><svg t="1610500989690" class="icon" viewBox="0 0 1025 1024" version="1.1" xmlns="http://www.w3.org/2000/svg" p-id="1110" xmlns:xlink="http://www.w3.org/1999/xlink" width="200.1953125" height="200"><defs><style type="text/css"></style></defs><path d="M98 826.55H81.80000000000001c-13.95 0-23.4-13.95-18-26.999999999999996l238.5-596.7c3.15-7.65 10.35-12.149999999999999 18-12.149999999999999h38.699999999999996c8.1 0 15.3 4.949999999999999 18 12.149999999999999L615.95 800c4.949999999999999 13.05-4.5 26.999999999999996-18 26.999999999999996h-19.799999999999997c-8.1 0-15.3-4.949999999999999-18-12.149999999999999l-58.95-147.15c-3.15-7.65-10.35-12.149999999999999-18-12.149999999999999h-290.25c-8.1 0-15.3 4.949999999999999-18 12.149999999999999L116 814.4c-2.6999999999999997 7.199999999999999-9.899999999999999 12.149999999999999-18 12.149999999999999z m127.8-223.2h221.4c13.95 0 23.4-13.95 18.45-26.55L356.3 292.4c-6.3-16.65-29.7-16.65-36.45 0L207.8 576.35c-5.3999999999999995 13.05 4.05 26.999999999999996 18 26.999999999999996zM886.4000000000001 555.2c10.799999999999999 0 19.349999999999998-8.549999999999999 19.349999999999998-19.349999999999998V514.25c-2.25-64.35-36.9-94.95-103.05-92.69999999999999-59.85 0-95.85 20.7-107.1 61.650000000000006-2.25 8.549999999999999-9.899999999999999 13.95-18.45 13.95H662.75c-13.05 0-22.5-12.6-18.9-25.2 20.249999999999996-65.7 73.35000000000001-98.55000000000001 159.29999999999998-98.55000000000001 103.05 2.25 155.7 50.4 157.95 144.45000000000002v209.70000000000002c-1.7999999999999998 26.55-1.3499999999999999 52.650000000000006 0.8999999999999999 77.85 0.8999999999999999 11.7-7.65 21.599999999999998-19.349999999999998 21.599999999999998H928.25c-10.35 0-18.9-8.1-19.349999999999998-18.45l-2.25-46.8-3.5999999999999996 6.749999999999999c-25.2 38.699999999999996-70.19999999999999 60.300000000000004-135.9 65.25h-3.5999999999999996c-92.69999999999999-4.949999999999999-141.75-48.599999999999994-146.25-130.5 2.25-59.4 31.95-102.15 89.55000000000001-127.34999999999998 29.7-11.25 79.19999999999999-18.45 148.05-20.7h31.5zM675.8 702.8c2.25 57.15 35.550000000000004 87.30000000000001 99.9 89.55000000000001 89.10000000000001-2.25 132.75-58.95 131.4-170.1 0-10.35-9-18.9-19.349999999999998-18.9h-12.149999999999999c-135.9-2.25-202.05 30.6-199.8 99.45z" p-id="1111" fill="#707070"></path></svg>