<?xml version="1.0" standalone="no"?><!DOCTYPE svg PUBLIC "-//W3C//DTD SVG 1.1//EN" "http://www.w3.org/Graphics/SVG/1.1/DTD/svg11.dtd"><svg t="1610502035134" class="icon" viewBox="0 0 1024 1024" version="1.1" xmlns="http://www.w3.org/2000/svg" p-id="677" xmlns:xlink="http://www.w3.org/1999/xlink" width="200" height="200"><defs><style type="text/css"></style></defs><path d="M432.355556 876.088889l159.288889 0c12.583822 0 22.755556 10.171733 22.755556 22.755556s-10.171733 22.755556-22.755556 22.755556l-159.288889 0c-12.583822 0-22.755556-10.171733-22.755556-22.755556S419.771733 876.088889 432.355556 876.088889z" p-id="678" fill="#707070"></path><path d="M819.2 409.6c0-169.665422-137.534578-307.2-307.2-307.2S204.8 239.934578 204.8 409.6c0 95.459556 97.166222 223.732622 182.180978 317.872356C386.980978 727.722667 386.844444 727.927467 386.844444 728.177778l0 91.022222c0 18.8416 15.291733 34.133333 34.133333 34.133333l182.044444 0c18.8416 0 34.133333-15.291733 34.133333-34.133333l0-91.022222c0-0.250311-0.136533-0.455111-0.136533-0.705422C722.056533 633.332622 819.2 505.059556 819.2 409.6zM599.017244 692.315022c-3.6864 1.615644-5.3248 5.5296-6.303289 10.285511l0 106.040889L432.355556 808.641422 432.355556 775.964444l0-13.676089 0-22.755556L432.355556 728.177778l0-29.855289c-0.364089-0.523378-0.841956-0.864711-1.6384-1.2288C354.144711 623.0016 250.311111 506.0608 250.311111 414.401422c0-147.160178 117.1456-266.467556 261.688889-266.467556S773.688889 267.241244 773.688889 414.401422C773.688889 506.0608 675.566933 618.200178 599.017244 692.315022z" p-id="679" fill="#707070"></path><path d="M446.395733 287.766756m-22.232178 0a0.977 0.977 0 1 0 44.464356 0 0.977 0.977 0 1 0-44.464356 0Z" p-id="680" fill="#707070"></path><path d="M341.333333 386.844444C340.992 384.318578 341.333333 389.438578 341.333333 386.844444L341.333333 386.844444z" p-id="681" fill="#707070"></path><path d="M444.370489 265.693867C387.367822 277.2992 341.333333 326.405689 341.333333 386.844444c-0.227556 1.274311 0 10.0352 0 11.377778 0 12.583822 10.171733 22.755556 22.755556 22.755556s22.755556-10.171733 22.755556-22.755556l0.227556-7.236267C386.525867 387.254044 386.844444 390.735644 386.844444 386.844444c0-40.004267 29.604978-72.817778 68.039111-78.483911 0.455111 0 0.8192-0.250311 1.274311-0.295822L444.370489 265.693867z" p-id="682" fill="#707070"></path></svg>