<?xml version="1.0" standalone="no"?><!DOCTYPE svg PUBLIC "-//W3C//DTD SVG 1.1//EN" "http://www.w3.org/Graphics/SVG/1.1/DTD/svg11.dtd"><svg t="1610501008202" class="icon" viewBox="0 0 1024 1024" version="1.1" xmlns="http://www.w3.org/2000/svg" p-id="1299" xmlns:xlink="http://www.w3.org/1999/xlink" width="200" height="200"><defs><style type="text/css"></style></defs><path d="M876.934 595.53c-32.085 15.7-67.389 23.99-103.96 23.99-130.682 0-236.642-105.96-236.642-236.642 0-90.502 51.249-171.836 130.78-211.675 18.822-9.411 17.651-36.669-1.902-44.47-48.323-19.213-100.108-29.21-153.21-29.21C283.112 97.524 97.524 283.113 97.524 512S283.112 926.476 512 926.476c187.05 0 349.477-124.977 399.165-302.47 5.656-20.285-15.311-37.742-34.23-28.477zM512 877.713c-201.972 0-365.714-163.742-365.714-365.714S310.028 146.286 512 146.286c29.794 0 59.002 3.95 87.333 10.922-68.95 53.053-111.714 135.363-111.714 225.72 0 157.598 127.756 285.403 285.403 285.403 25.162 0 49.786-3.609 73.582-9.997C789.406 789.065 659.7 877.714 512 877.714z" fill="#707070" p-id="1300"></path></svg>